<?xml version="1.0" encoding="UTF-8"?>
<svg xmlns="http://www.w3.org/2000/svg" xmlns:xlink="http://www.w3.org/1999/xlink" width="257.949pt" height="153.07pt" viewBox="0 0 257.949 153.07" version="1.1">
<g id="surface1">
<path style=" stroke:none;fill-rule:nonzero;fill:rgb(94.351196%,27.764893%,11.294556%);fill-opacity:1;" d="M 79.523438 84.984375 L 79.609375 83.125 L 79.757812 83.125 C 80.078125 83.082031 80.296875 83.019531 80.417969 82.949219 C 80.542969 82.878906 80.625 82.75 80.667969 82.558594 L 80.777344 81.863281 L 82.121094 73.175781 L 82.140625 73.003906 L 82.183594 72.546875 C 82.183594 72.15625 82.125 71.871094 82 71.691406 C 81.878906 71.507812 81.644531 71.375 81.296875 71.289062 C 81.222656 71.257812 81.101562 71.242188 80.925781 71.242188 L 80.992188 69.382812 L 86.792969 69.382812 C 86.792969 70.121094 86.964844 70.976562 87.308594 71.960938 L 87.90625 73.753906 C 88.121094 74.375 88.339844 75.050781 88.570312 75.789062 C 88.753906 76.367188 88.875 76.785156 88.933594 77.042969 L 88.976562 77.214844 L 89.167969 78.167969 L 89.445312 79.597656 L 89.511719 78.902344 C 89.609375 78.035156 89.746094 77.25 89.917969 76.550781 C 90.089844 75.847656 90.335938 75.097656 90.667969 74.304688 L 91.550781 72.265625 L 91.621094 71.980469 C 91.621094 71.808594 91.558594 71.667969 91.445312 71.558594 C 91.332031 71.449219 91.105469 71.34375 90.777344 71.242188 L 90.667969 71.242188 L 90.667969 69.382812 L 97.027344 69.382812 C 97.027344 69.570312 97.023438 69.742188 97.015625 69.890625 C 97.007812 70.042969 97.007812 70.175781 97.007812 70.292969 L 97.246094 72.011719 L 98.433594 81.425781 L 98.519531 82.144531 C 98.566406 82.476562 98.640625 82.707031 98.75 82.832031 C 98.855469 82.953125 99.0625 83.050781 99.363281 83.125 L 99.691406 83.125 L 99.625 84.984375 L 93.542969 84.984375 L 93.628906 83.1875 L 93.824219 83.1875 C 94.402344 83.089844 94.691406 82.753906 94.691406 82.191406 L 94.691406 81.371094 L 94.324219 76.375 L 94.28125 75.527344 L 94.171875 74.011719 C 94.097656 74.765625 93.984375 75.421875 93.824219 75.984375 C 93.667969 76.546875 93.339844 77.445312 92.851562 78.6875 L 90.925781 83.1875 L 90.753906 83.578125 C 90.679688 83.765625 90.609375 83.980469 90.535156 84.226562 C 90.464844 84.472656 90.390625 84.722656 90.320312 84.984375 L 87.984375 84.984375 C 87.941406 84.679688 87.886719 84.425781 87.820312 84.214844 C 87.753906 84.003906 87.621094 83.652344 87.417969 83.164062 L 86.683594 81.167969 C 86.265625 80 85.964844 79.039062 85.777344 78.285156 C 85.53125 77.316406 85.34375 76.519531 85.214844 75.890625 C 85.085938 75.261719 85.019531 74.671875 85.019531 74.125 L 85.019531 75.035156 C 85.019531 75.339844 85.027344 75.644531 85.042969 75.949219 L 84.867188 77.625 L 84.566406 81.839844 C 84.566406 82.347656 84.605469 82.671875 84.683594 82.808594 C 84.761719 82.945312 84.996094 83.050781 85.386719 83.125 L 85.601562 83.125 L 85.515625 84.984375 Z M 79.523438 84.984375 "/>
<path style=" stroke:none;fill-rule:nonzero;fill:rgb(94.351196%,27.764893%,11.294556%);fill-opacity:1;" d="M 108.410156 78.082031 L 107.089844 74.382812 L 106.851562 73.496094 C 106.820312 73.78125 106.796875 73.980469 106.773438 74.078125 C 106.753906 74.179688 106.714844 74.289062 106.65625 74.402344 L 105.335938 78.082031 Z M 99.34375 84.984375 L 99.429688 83.125 C 99.429688 83.066406 99.488281 83.035156 99.601562 83.035156 C 99.75 83.035156 99.832031 83.027344 99.863281 83.015625 C 100.023438 82.941406 100.160156 82.835938 100.285156 82.6875 C 100.40625 82.542969 100.519531 82.3125 100.621094 81.996094 L 104.96875 70.292969 C 104.996094 70.191406 105.03125 70.058594 105.078125 69.894531 C 105.121094 69.726562 105.15625 69.558594 105.183594 69.382812 L 108.996094 69.382812 C 109.109375 69.382812 109.167969 69.492188 109.167969 69.707031 C 109.167969 70.027344 109.175781 70.207031 109.1875 70.25 L 113.515625 82.363281 C 113.632812 82.726562 113.933594 82.964844 114.425781 83.078125 C 114.511719 83.09375 114.597656 83.109375 114.683594 83.125 L 114.597656 84.984375 L 108.558594 84.984375 L 108.648438 83.125 L 108.863281 83.125 C 109.429688 83.019531 109.648438 82.757812 109.535156 82.328125 L 109.058594 80.832031 L 104.492188 80.832031 L 104.148438 81.867188 C 104.0625 82.117188 104.015625 82.320312 104.015625 82.484375 C 104.015625 82.820312 104.296875 83.035156 104.859375 83.125 L 105.015625 83.125 L 105.015625 84.984375 Z M 99.34375 84.984375 "/>
<path style=" stroke:none;fill-rule:nonzero;fill:rgb(94.351196%,27.764893%,11.294556%);fill-opacity:1;" d="M 114.578125 84.984375 L 114.664062 83.125 L 114.949219 83.125 C 115.257812 83.050781 115.476562 82.9375 115.597656 82.785156 C 115.722656 82.632812 115.808594 82.375 115.855469 82.011719 L 115.855469 72.726562 C 115.855469 72.160156 115.78125 71.785156 115.640625 71.605469 C 115.5 71.421875 115.203125 71.300781 114.757812 71.242188 L 114.578125 71.242188 L 114.664062 69.382812 L 120.65625 69.382812 L 120.570312 71.242188 C 120.335938 71.214844 120.128906 71.289062 119.960938 71.460938 C 119.789062 71.632812 119.707031 71.90625 119.707031 72.28125 L 119.707031 75.421875 L 122.324219 72.355469 L 122.667969 71.964844 L 122.757812 71.746094 C 122.757812 71.410156 122.503906 71.242188 122 71.242188 L 121.890625 71.242188 L 121.976562 69.382812 L 127.582031 69.382812 L 127.515625 71.242188 L 122.949219 75.777344 L 127.0625 82.34375 C 127.378906 82.863281 127.84375 83.125 128.449219 83.125 L 128.359375 84.984375 L 124.121094 84.984375 L 120.464844 78.6875 L 119.707031 79.574219 L 119.707031 81.738281 C 119.765625 82.273438 119.847656 82.625 119.960938 82.789062 C 120.070312 82.957031 120.304688 83.066406 120.65625 83.125 L 120.808594 83.125 L 120.722656 84.984375 Z M 114.578125 84.984375 "/>
<path style=" stroke:none;fill-rule:nonzero;fill:rgb(94.351196%,27.764893%,11.294556%);fill-opacity:1;" d="M 128.296875 84.984375 L 128.382812 83.125 C 128.53125 83.125 128.640625 83.109375 128.714844 83.082031 C 128.992188 83.007812 129.199219 82.867188 129.328125 82.65625 C 129.464844 82.445312 129.527344 82.109375 129.527344 81.648438 L 129.527344 72.785156 C 129.484375 72.421875 129.425781 72.140625 129.347656 71.9375 C 129.265625 71.734375 129.140625 71.570312 128.96875 71.4375 C 128.792969 71.308594 128.570312 71.242188 128.296875 71.242188 L 128.382812 69.382812 L 139.613281 69.382812 L 139.765625 71.113281 C 139.851562 71.921875 139.980469 72.757812 140.152344 73.625 L 137.707031 73.625 L 137.578125 73.105469 L 137.511719 72.933594 L 137.449219 72.78125 C 137.332031 72.519531 137.195312 72.359375 137.035156 72.296875 C 136.878906 72.226562 136.53125 72.195312 136 72.195312 L 134.742188 72.195312 C 134.453125 72.195312 134.246094 72.226562 134.117188 72.28125 C 133.984375 72.339844 133.839844 72.480469 133.671875 72.707031 C 133.507812 72.929688 133.425781 73.242188 133.425781 73.644531 L 133.425781 75.464844 L 138.855469 75.464844 L 138.726562 78.429688 L 133.425781 78.429688 L 133.425781 80.8125 C 133.425781 81.410156 133.496094 81.796875 133.640625 81.972656 C 133.785156 82.148438 134.144531 82.285156 134.722656 82.386719 L 135.847656 82.386719 C 136.523438 82.386719 136.976562 82.296875 137.199219 82.113281 C 137.421875 81.933594 137.636719 81.476562 137.839844 80.75 L 137.988281 80.183594 L 140.457031 80.183594 C 140.226562 81.324219 140.074219 82.125 140 82.570312 C 139.871094 83.425781 139.808594 84.230469 139.808594 84.984375 Z M 128.296875 84.984375 "/>
<path style=" stroke:none;fill-rule:nonzero;fill:rgb(94.351196%,27.764893%,11.294556%);fill-opacity:1;" d="M 147.039062 75.746094 C 147.9375 75.746094 148.628906 75.609375 149.105469 75.335938 C 149.585938 75.066406 149.859375 74.6875 149.933594 74.203125 C 149.960938 73.996094 149.976562 73.84375 149.976562 73.738281 C 149.976562 72.769531 149.433594 72.242188 148.355469 72.152344 C 148.253906 72.140625 148.148438 72.132812 148.039062 72.132812 L 147.8125 72.132812 C 146.761719 72.132812 146.234375 72.40625 146.234375 72.957031 L 146.234375 75.746094 Z M 141.042969 84.984375 L 141.128906 83.125 L 141.277344 83.125 C 141.625 83.125 141.863281 83.003906 142.003906 82.765625 C 142.140625 82.523438 142.207031 82.097656 142.207031 81.472656 L 142.296875 72.808594 L 142.296875 72.503906 C 142.296875 72.054688 142.230469 71.753906 142.097656 71.601562 C 141.964844 71.449219 141.683594 71.332031 141.261719 71.242188 L 141.042969 71.242188 L 141.128906 69.382812 L 146.148438 69.382812 L 148.457031 69.339844 L 150.246094 69.339844 C 151.28125 69.339844 152.160156 69.757812 152.878906 70.597656 C 153.601562 71.433594 153.960938 72.429688 153.960938 73.582031 C 153.960938 74.15625 153.851562 74.742188 153.632812 75.335938 C 153.1875 76.589844 152.351562 77.398438 151.125 77.757812 L 153.570312 82.253906 C 153.726562 82.542969 153.90625 82.746094 154.109375 82.863281 C 154.238281 82.933594 154.382812 82.992188 154.542969 83.035156 L 154.804688 83.125 L 154.738281 84.984375 L 150.65625 84.984375 C 150.601562 84.808594 150.542969 84.632812 150.484375 84.453125 C 150.429688 84.269531 150.363281 84.121094 150.292969 84.007812 L 150.226562 83.898438 L 147.484375 78.839844 L 146.191406 78.949219 L 146.234375 81.542969 C 146.234375 82.136719 146.292969 82.523438 146.402344 82.710938 C 146.515625 82.898438 146.785156 83.035156 147.210938 83.125 L 147.382812 83.125 L 147.292969 84.984375 Z M 141.042969 84.984375 "/>
<path style=" stroke:none;fill-rule:nonzero;fill:rgb(94.351196%,27.764893%,11.294556%);fill-opacity:1;" d="M 157.007812 76.703125 L 155.367188 75.488281 C 155.710938 75.117188 156.039062 74.71875 156.351562 74.289062 C 156.660156 73.863281 156.9375 73.429688 157.183594 72.980469 C 157.097656 72.992188 156.953125 72.996094 156.75 72.996094 C 156.304688 72.996094 155.9375 72.84375 155.65625 72.53125 C 155.375 72.222656 155.234375 71.828125 155.234375 71.351562 C 155.234375 71.207031 155.25 71.058594 155.277344 70.910156 C 155.304688 70.757812 155.367188 70.597656 155.449219 70.421875 C 155.695312 69.902344 156.09375 69.535156 156.644531 69.316406 C 156.960938 69.203125 157.253906 69.144531 157.527344 69.144531 C 158.117188 69.144531 158.632812 69.339844 159.0625 69.730469 C 159.496094 70.121094 159.714844 70.605469 159.714844 71.1875 C 159.730469 71.332031 159.738281 71.441406 159.738281 71.511719 C 159.738281 72.105469 159.585938 72.75 159.28125 73.445312 C 158.980469 74.140625 158.46875 74.949219 157.746094 75.878906 C 157.5 76.210938 157.253906 76.484375 157.007812 76.703125 "/>
<path style=" stroke:none;fill-rule:nonzero;fill:rgb(94.351196%,27.764893%,11.294556%);fill-opacity:1;" d="M 171.703125 69.816406 L 171.703125 71.222656 C 171.703125 72.21875 171.746094 73.226562 171.832031 74.253906 L 169.128906 74.210938 L 169.015625 73.582031 L 169.015625 73.515625 L 168.867188 72.976562 C 168.734375 72.527344 168.539062 72.203125 168.269531 72.003906 C 168 71.800781 167.605469 71.699219 167.082031 71.699219 C 166.863281 71.699219 166.613281 71.71875 166.320312 71.761719 L 165.90625 71.851562 C 165.601562 71.949219 165.359375 72.117188 165.179688 72.347656 C 164.996094 72.578125 164.90625 72.839844 164.90625 73.128906 C 164.90625 73.328125 164.972656 73.546875 165.101562 73.773438 C 165.230469 74.007812 165.417969 74.199219 165.664062 74.347656 C 165.910156 74.5 166.355469 74.691406 167.007812 74.921875 L 167.742188 75.203125 C 168.492188 75.492188 169.0625 75.738281 169.453125 75.941406 C 170.417969 76.429688 171.097656 76.941406 171.484375 77.476562 C 171.875 78.007812 172.113281 78.761719 172.199219 79.726562 C 172.214844 79.828125 172.222656 79.921875 172.222656 80.007812 L 172.222656 80.289062 C 172.222656 80.433594 172.21875 80.5625 172.210938 80.679688 C 172.203125 80.796875 172.167969 81.03125 172.113281 81.390625 C 171.808594 82.820312 171.125 83.808594 170.058594 84.355469 C 168.996094 84.90625 167.339844 85.179688 165.09375 85.179688 L 164.226562 85.113281 L 162.269531 84.851562 L 162.097656 84.832031 L 161.46875 84.769531 L 161.402344 83.492188 L 161.335938 82.234375 L 161.335938 79.792969 L 163.847656 79.835938 L 163.847656 80.203125 C 163.976562 81.628906 164.804688 82.34375 166.335938 82.34375 C 166.710938 82.34375 167.042969 82.28125 167.332031 82.160156 C 167.617188 82.035156 167.839844 81.875 167.988281 81.664062 C 168.140625 81.453125 168.21875 81.226562 168.21875 80.980469 C 168.21875 80.796875 168.140625 80.578125 167.988281 80.332031 C 167.839844 80.085938 167.617188 79.878906 167.332031 79.707031 C 167.042969 79.53125 166.609375 79.367188 166.03125 79.207031 C 164.503906 78.773438 163.375 78.289062 162.644531 77.75 C 161.917969 77.207031 161.402344 76.496094 161.097656 75.613281 C 160.996094 75.339844 160.933594 75.070312 160.914062 74.804688 C 160.890625 74.535156 160.882812 74.125 160.882812 73.558594 C 160.984375 72.378906 161.429688 71.386719 162.222656 70.59375 C 162.714844 70.105469 163.261719 69.742188 163.871094 69.503906 C 164.472656 69.265625 165.210938 69.144531 166.074219 69.144531 C 166.464844 69.144531 166.960938 69.183594 167.570312 69.253906 L 167.851562 69.296875 L 169.625 69.578125 Z M 171.703125 69.816406 "/>
<path style=" stroke:none;fill-rule:nonzero;fill:rgb(94.351196%,27.764893%,11.294556%);fill-opacity:1;" d="M 186.394531 81.910156 C 187.34375 81.910156 188.003906 81.578125 188.375 80.914062 C 188.742188 80.253906 188.925781 79.027344 188.925781 77.238281 L 188.859375 75.875 C 188.730469 74.75 188.535156 73.949219 188.265625 73.472656 C 188 72.996094 187.570312 72.679688 186.980469 72.519531 C 186.703125 72.449219 186.414062 72.414062 186.113281 72.414062 C 185.808594 72.414062 185.554688 72.457031 185.355469 72.542969 C 184.734375 72.816406 184.421875 73.34375 184.421875 74.121094 L 184.421875 80.570312 C 184.421875 81.136719 184.550781 81.496094 184.804688 81.664062 C 185.054688 81.828125 185.585938 81.910156 186.394531 81.910156 M 179.273438 84.984375 L 179.363281 83.125 L 179.597656 83.125 C 179.945312 83.050781 180.1875 82.921875 180.324219 82.742188 C 180.460938 82.558594 180.53125 82.257812 180.53125 81.835938 L 180.53125 72.425781 C 180.472656 72 180.371094 71.707031 180.234375 71.539062 C 180.09375 71.371094 179.839844 71.261719 179.472656 71.199219 L 179.273438 71.199219 L 179.363281 69.339844 C 180.011719 69.339844 180.890625 69.355469 182 69.382812 C 183.113281 69.414062 184.121094 69.429688 185.03125 69.429688 L 186.523438 69.339844 C 186.828125 69.339844 187.121094 69.34375 187.402344 69.351562 C 187.679688 69.359375 187.988281 69.398438 188.320312 69.46875 C 189.691406 69.757812 190.765625 70.398438 191.542969 71.386719 C 192.324219 72.375 192.816406 73.769531 193.015625 75.570312 C 193.03125 75.703125 193.042969 75.921875 193.058594 76.230469 C 193.070312 76.542969 193.082031 76.929688 193.082031 77.390625 L 193.082031 77.996094 C 193.082031 80.40625 192.496094 82.171875 191.328125 83.296875 C 190.160156 84.421875 188.398438 84.984375 186.046875 84.984375 L 182.5625 84.851562 C 182.289062 84.851562 181.738281 84.875 180.910156 84.917969 C 180.078125 84.960938 179.535156 84.984375 179.273438 84.984375 "/>
<path style=" stroke:none;fill-rule:nonzero;fill:rgb(94.351196%,27.764893%,11.294556%);fill-opacity:1;" d="M 193.882812 84.984375 L 193.96875 83.125 C 194.113281 83.125 194.226562 83.109375 194.300781 83.082031 C 194.578125 83.007812 194.785156 82.867188 194.914062 82.65625 C 195.046875 82.445312 195.113281 82.109375 195.113281 81.648438 L 195.113281 72.785156 C 195.070312 72.421875 195.011719 72.140625 194.929688 71.9375 C 194.851562 71.734375 194.722656 71.570312 194.550781 71.4375 C 194.378906 71.308594 194.15625 71.242188 193.882812 71.242188 L 193.964844 69.382812 L 205.199219 69.382812 L 205.347656 71.113281 C 205.4375 71.921875 205.566406 72.757812 205.738281 73.625 L 203.292969 73.625 L 203.164062 73.105469 L 203.097656 72.933594 L 203.035156 72.78125 C 202.917969 72.519531 202.78125 72.359375 202.621094 72.296875 C 202.460938 72.226562 202.117188 72.195312 201.585938 72.195312 L 200.328125 72.195312 C 200.039062 72.195312 199.828125 72.226562 199.699219 72.28125 C 199.570312 72.339844 199.421875 72.480469 199.257812 72.707031 C 199.09375 72.929688 199.007812 73.242188 199.007812 73.644531 L 199.007812 75.464844 L 204.441406 75.464844 L 204.308594 78.429688 L 199.007812 78.429688 L 199.007812 80.8125 C 199.007812 81.410156 199.078125 81.796875 199.226562 81.972656 C 199.371094 82.148438 199.730469 82.285156 200.308594 82.386719 L 201.433594 82.386719 C 202.109375 82.386719 202.5625 82.296875 202.785156 82.113281 C 203.007812 81.933594 203.222656 81.476562 203.421875 80.75 L 203.574219 80.183594 L 206.039062 80.183594 C 205.8125 81.324219 205.660156 82.125 205.585938 82.570312 C 205.457031 83.425781 205.394531 84.230469 205.394531 84.984375 Z M 193.882812 84.984375 "/>
<path style=" stroke:none;fill-rule:nonzero;fill:rgb(94.351196%,27.764893%,11.294556%);fill-opacity:1;" d="M 217.964844 69.816406 L 217.964844 71.222656 C 217.964844 72.21875 218.007812 73.226562 218.09375 74.253906 L 215.390625 74.210938 L 215.28125 73.582031 L 215.28125 73.515625 L 215.128906 72.976562 C 215 72.527344 214.800781 72.203125 214.53125 72.003906 C 214.261719 71.800781 213.867188 71.699219 213.347656 71.699219 C 213.128906 71.699219 212.875 71.71875 212.582031 71.761719 L 212.171875 71.851562 C 211.867188 71.949219 211.621094 72.117188 211.441406 72.347656 C 211.261719 72.578125 211.171875 72.839844 211.171875 73.128906 C 211.171875 73.328125 211.234375 73.546875 211.363281 73.773438 C 211.492188 74.007812 211.683594 74.199219 211.925781 74.347656 C 212.171875 74.5 212.621094 74.691406 213.269531 74.921875 L 214.003906 75.203125 C 214.753906 75.492188 215.324219 75.738281 215.714844 75.941406 C 216.679688 76.429688 217.359375 76.941406 217.75 77.476562 C 218.136719 78.007812 218.375 78.761719 218.460938 79.726562 C 218.476562 79.828125 218.484375 79.921875 218.484375 80.007812 L 218.484375 80.289062 C 218.484375 80.433594 218.480469 80.5625 218.472656 80.679688 C 218.464844 80.796875 218.433594 81.03125 218.375 81.390625 C 218.070312 82.820312 217.386719 83.808594 216.320312 84.355469 C 215.257812 84.90625 213.605469 85.179688 211.359375 85.179688 L 210.488281 85.113281 L 208.53125 84.851562 L 208.359375 84.832031 L 207.730469 84.769531 L 207.664062 83.492188 L 207.601562 82.234375 L 207.601562 79.792969 L 210.109375 79.835938 L 210.109375 80.203125 C 210.238281 81.628906 211.070312 82.34375 212.601562 82.34375 C 212.972656 82.34375 213.304688 82.28125 213.59375 82.160156 C 213.882812 82.035156 214.101562 81.875 214.25 81.664062 C 214.402344 81.453125 214.480469 81.226562 214.480469 80.980469 C 214.480469 80.796875 214.402344 80.578125 214.25 80.332031 C 214.101562 80.085938 213.882812 79.878906 213.59375 79.707031 C 213.304688 79.53125 212.871094 79.367188 212.296875 79.207031 C 210.765625 78.773438 209.636719 78.289062 208.90625 77.75 C 208.179688 77.207031 207.664062 76.496094 207.363281 75.613281 C 207.261719 75.339844 207.199219 75.070312 207.179688 74.804688 C 207.15625 74.535156 207.144531 74.125 207.144531 73.558594 C 207.246094 72.378906 207.691406 71.386719 208.484375 70.59375 C 208.976562 70.105469 209.527344 69.742188 210.132812 69.503906 C 210.734375 69.265625 211.472656 69.144531 212.339844 69.144531 C 212.726562 69.144531 213.226562 69.183594 213.832031 69.253906 L 214.113281 69.296875 L 215.886719 69.578125 Z M 217.964844 69.816406 "/>
<path style=" stroke:none;fill-rule:nonzero;fill:rgb(94.351196%,27.764893%,11.294556%);fill-opacity:1;" d="M 219.265625 84.984375 L 219.347656 83.125 L 219.632812 83.125 C 219.945312 83.050781 220.160156 82.9375 220.285156 82.785156 C 220.410156 82.632812 220.492188 82.375 220.539062 82.011719 L 220.539062 72.726562 C 220.539062 72.160156 220.46875 71.785156 220.328125 71.605469 C 220.183594 71.421875 219.890625 71.300781 219.441406 71.242188 L 219.265625 71.242188 L 219.347656 69.382812 L 225.34375 69.382812 L 225.253906 71.242188 C 225.019531 71.214844 224.816406 71.289062 224.648438 71.460938 C 224.476562 71.632812 224.390625 71.90625 224.390625 72.28125 L 224.390625 75.421875 L 227.007812 72.355469 L 227.355469 71.964844 L 227.445312 71.746094 C 227.445312 71.410156 227.191406 71.242188 226.6875 71.242188 L 226.578125 71.242188 L 226.664062 69.382812 L 232.269531 69.382812 L 232.203125 71.242188 L 227.636719 75.777344 L 231.746094 82.34375 C 232.066406 82.863281 232.527344 83.125 233.132812 83.125 L 233.046875 84.984375 L 228.804688 84.984375 L 225.148438 78.6875 L 224.390625 79.574219 L 224.390625 81.738281 C 224.449219 82.273438 224.535156 82.625 224.644531 82.789062 C 224.757812 82.957031 224.988281 83.066406 225.34375 83.125 L 225.492188 83.125 L 225.40625 84.984375 Z M 219.265625 84.984375 "/>
<path style=" stroke:none;fill-rule:nonzero;fill:rgb(33.64563%,34.083557%,34.945679%);fill-opacity:1;" d="M 80.507812 90.925781 L 81.382812 90.925781 C 81.652344 90.925781 81.867188 90.902344 82.019531 90.847656 C 82.171875 90.800781 82.296875 90.730469 82.386719 90.636719 C 82.515625 90.507812 82.617188 90.335938 82.6875 90.117188 C 82.761719 89.902344 82.792969 89.636719 82.792969 89.328125 C 82.792969 88.902344 82.726562 88.570312 82.582031 88.339844 C 82.445312 88.109375 82.273438 87.953125 82.070312 87.875 C 81.925781 87.820312 81.691406 87.789062 81.367188 87.789062 L 80.507812 87.789062 Z M 79.964844 91.410156 L 79.964844 87.308594 L 81.375 87.308594 C 81.695312 87.308594 81.941406 87.328125 82.109375 87.367188 C 82.34375 87.421875 82.542969 87.519531 82.710938 87.660156 C 82.925781 87.839844 83.089844 88.078125 83.195312 88.363281 C 83.304688 88.644531 83.355469 88.96875 83.355469 89.335938 C 83.355469 89.648438 83.320312 89.921875 83.246094 90.164062 C 83.171875 90.40625 83.082031 90.605469 82.96875 90.761719 C 82.851562 90.921875 82.730469 91.042969 82.59375 91.132812 C 82.457031 91.226562 82.296875 91.292969 82.105469 91.339844 C 81.910156 91.386719 81.695312 91.410156 81.445312 91.410156 Z M 79.964844 91.410156 "/>
<path style=" stroke:none;fill-rule:nonzero;fill:rgb(33.64563%,34.083557%,34.945679%);fill-opacity:1;" d="M 86.714844 91.410156 L 86.714844 87.308594 L 89.683594 87.308594 L 89.683594 87.789062 L 87.261719 87.789062 L 87.261719 89.046875 L 89.527344 89.046875 L 89.527344 89.527344 L 87.261719 89.527344 L 87.261719 90.925781 L 89.777344 90.925781 L 89.777344 91.410156 Z M 86.714844 91.410156 "/>
<path style=" stroke:none;fill-rule:nonzero;fill:rgb(33.64563%,34.083557%,34.945679%);fill-opacity:1;" d="M 92.945312 90.09375 L 93.457031 90.046875 C 93.480469 90.253906 93.539062 90.417969 93.625 90.550781 C 93.714844 90.683594 93.851562 90.789062 94.039062 90.871094 C 94.226562 90.953125 94.4375 90.992188 94.671875 90.992188 C 94.875 90.992188 95.058594 90.960938 95.21875 90.902344 C 95.375 90.839844 95.496094 90.753906 95.574219 90.648438 C 95.648438 90.539062 95.6875 90.421875 95.6875 90.292969 C 95.6875 90.167969 95.648438 90.054688 95.574219 89.957031 C 95.5 89.863281 95.378906 89.78125 95.207031 89.71875 C 95.09375 89.671875 94.851562 89.609375 94.472656 89.519531 C 94.097656 89.425781 93.835938 89.339844 93.683594 89.261719 C 93.488281 89.160156 93.339844 89.03125 93.246094 88.878906 C 93.148438 88.726562 93.101562 88.554688 93.101562 88.367188 C 93.101562 88.160156 93.160156 87.964844 93.277344 87.785156 C 93.398438 87.605469 93.566406 87.46875 93.792969 87.375 C 94.019531 87.28125 94.269531 87.238281 94.546875 87.238281 C 94.847656 87.238281 95.117188 87.285156 95.347656 87.382812 C 95.582031 87.480469 95.761719 87.625 95.886719 87.816406 C 96.011719 88.007812 96.078125 88.222656 96.089844 88.460938 L 95.566406 88.5 C 95.539062 88.242188 95.445312 88.046875 95.285156 87.914062 C 95.121094 87.78125 94.882812 87.714844 94.566406 87.714844 C 94.238281 87.714844 94 87.777344 93.851562 87.894531 C 93.699219 88.015625 93.625 88.160156 93.625 88.332031 C 93.625 88.480469 93.679688 88.597656 93.785156 88.695312 C 93.886719 88.789062 94.160156 88.886719 94.605469 88.988281 C 95.042969 89.085938 95.347656 89.175781 95.511719 89.25 C 95.75 89.359375 95.925781 89.496094 96.039062 89.667969 C 96.15625 89.835938 96.210938 90.03125 96.210938 90.25 C 96.210938 90.46875 96.148438 90.675781 96.023438 90.867188 C 95.898438 91.0625 95.71875 91.210938 95.484375 91.320312 C 95.25 91.425781 94.984375 91.476562 94.691406 91.476562 C 94.324219 91.476562 94.011719 91.425781 93.761719 91.316406 C 93.507812 91.210938 93.3125 91.046875 93.171875 90.828125 C 93.027344 90.613281 92.953125 90.367188 92.945312 90.09375 "/>
<path style=" stroke:none;fill-rule:nonzero;fill:rgb(33.64563%,34.083557%,34.945679%);fill-opacity:1;" d="M 99.644531 87.308594 L 100.1875 87.308594 L 100.1875 91.410156 L 99.644531 91.410156 Z M 99.644531 87.308594 "/>
<path style=" stroke:none;fill-rule:nonzero;fill:rgb(33.64563%,34.083557%,34.945679%);fill-opacity:1;" d="M 105.667969 89.800781 L 105.667969 89.320312 L 107.40625 89.316406 L 107.40625 90.839844 C 107.140625 91.050781 106.863281 91.210938 106.578125 91.320312 C 106.296875 91.425781 106.003906 91.476562 105.707031 91.476562 C 105.304688 91.476562 104.9375 91.390625 104.609375 91.222656 C 104.277344 91.050781 104.03125 90.796875 103.863281 90.472656 C 103.695312 90.148438 103.613281 89.78125 103.613281 89.378906 C 103.613281 88.976562 103.695312 88.609375 103.859375 88.261719 C 104.027344 87.914062 104.269531 87.65625 104.582031 87.488281 C 104.894531 87.320312 105.257812 87.238281 105.664062 87.238281 C 105.960938 87.238281 106.230469 87.285156 106.472656 87.382812 C 106.710938 87.476562 106.898438 87.613281 107.03125 87.785156 C 107.171875 87.953125 107.273438 88.179688 107.34375 88.453125 L 106.855469 88.589844 C 106.792969 88.378906 106.714844 88.214844 106.625 88.097656 C 106.53125 87.976562 106.402344 87.878906 106.234375 87.808594 C 106.0625 87.738281 105.875 87.703125 105.667969 87.703125 C 105.421875 87.703125 105.203125 87.738281 105.023438 87.816406 C 104.84375 87.890625 104.695312 87.988281 104.585938 88.113281 C 104.476562 88.238281 104.390625 88.371094 104.328125 88.519531 C 104.222656 88.773438 104.171875 89.046875 104.171875 89.34375 C 104.171875 89.710938 104.234375 90.015625 104.359375 90.261719 C 104.484375 90.507812 104.671875 90.691406 104.910156 90.8125 C 105.148438 90.929688 105.40625 90.988281 105.675781 90.988281 C 105.910156 90.988281 106.140625 90.945312 106.363281 90.855469 C 106.589844 90.765625 106.757812 90.667969 106.875 90.566406 L 106.875 89.800781 Z M 105.667969 89.800781 "/>
<path style=" stroke:none;fill-rule:nonzero;fill:rgb(33.64563%,34.083557%,34.945679%);fill-opacity:1;" d="M 110.804688 91.410156 L 110.804688 87.308594 L 111.359375 87.308594 L 113.511719 90.527344 L 113.511719 87.308594 L 114.035156 87.308594 L 114.035156 91.410156 L 113.476562 91.410156 L 111.324219 88.183594 L 111.324219 91.410156 Z M 110.804688 91.410156 "/>
<path style=" stroke:none;fill-rule:nonzero;fill:rgb(33.64563%,34.083557%,34.945679%);fill-opacity:1;" d="M 123 88.789062 C 123.21875 88.65625 123.359375 88.546875 123.425781 88.449219 C 123.488281 88.351562 123.519531 88.246094 123.519531 88.128906 C 123.519531 87.988281 123.476562 87.871094 123.386719 87.785156 C 123.300781 87.695312 123.1875 87.652344 123.054688 87.652344 C 122.917969 87.652344 122.804688 87.695312 122.714844 87.785156 C 122.625 87.871094 122.578125 87.976562 122.578125 88.105469 C 122.578125 88.167969 122.59375 88.234375 122.628906 88.308594 C 122.660156 88.375 122.710938 88.449219 122.777344 88.527344 Z M 123.707031 90.527344 L 122.785156 89.382812 C 122.511719 89.546875 122.328125 89.695312 122.230469 89.835938 C 122.136719 89.976562 122.089844 90.109375 122.089844 90.25 C 122.089844 90.414062 122.15625 90.585938 122.289062 90.769531 C 122.421875 90.945312 122.609375 91.035156 122.851562 91.035156 C 123.003906 91.035156 123.160156 90.988281 123.320312 90.894531 C 123.480469 90.800781 123.609375 90.679688 123.707031 90.527344 M 124.023438 90.925781 C 123.855469 91.109375 123.675781 91.25 123.480469 91.339844 C 123.285156 91.433594 123.070312 91.476562 122.847656 91.476562 C 122.425781 91.476562 122.09375 91.335938 121.847656 91.054688 C 121.648438 90.824219 121.546875 90.566406 121.546875 90.277344 C 121.546875 90.023438 121.628906 89.796875 121.792969 89.589844 C 121.957031 89.390625 122.199219 89.207031 122.523438 89.054688 C 122.339844 88.839844 122.21875 88.667969 122.15625 88.535156 C 122.09375 88.402344 122.0625 88.273438 122.0625 88.152344 C 122.0625 87.90625 122.15625 87.691406 122.351562 87.507812 C 122.542969 87.328125 122.789062 87.238281 123.082031 87.238281 C 123.359375 87.238281 123.589844 87.324219 123.769531 87.492188 C 123.945312 87.664062 124.035156 87.871094 124.035156 88.113281 C 124.035156 88.503906 123.773438 88.835938 123.261719 89.113281 L 123.996094 90.046875 C 124.078125 89.886719 124.144531 89.695312 124.191406 89.476562 L 124.714844 89.589844 C 124.625 89.949219 124.503906 90.242188 124.351562 90.476562 C 124.539062 90.726562 124.753906 90.9375 124.992188 91.101562 L 124.652344 91.507812 C 124.449219 91.375 124.238281 91.183594 124.023438 90.925781 "/>
<path style=" stroke:none;fill-rule:nonzero;fill:rgb(33.64563%,34.083557%,34.945679%);fill-opacity:1;" d="M 132.914062 89.117188 L 134.082031 89.117188 C 134.324219 89.117188 134.519531 89.09375 134.660156 89.039062 C 134.800781 88.988281 134.90625 88.90625 134.980469 88.792969 C 135.054688 88.679688 135.089844 88.558594 135.089844 88.429688 C 135.089844 88.230469 135.019531 88.074219 134.878906 87.945312 C 134.734375 87.824219 134.515625 87.761719 134.210938 87.761719 L 132.914062 87.761719 Z M 132.371094 91.410156 L 132.371094 87.308594 L 134.1875 87.308594 C 134.554688 87.308594 134.832031 87.347656 135.023438 87.417969 C 135.214844 87.492188 135.363281 87.621094 135.476562 87.808594 C 135.59375 87.992188 135.648438 88.199219 135.648438 88.429688 C 135.648438 88.71875 135.554688 88.964844 135.367188 89.164062 C 135.179688 89.359375 134.886719 89.488281 134.492188 89.542969 C 134.636719 89.613281 134.746094 89.679688 134.820312 89.746094 C 134.976562 89.894531 135.128906 90.074219 135.269531 90.292969 L 135.984375 91.410156 L 135.300781 91.410156 L 134.761719 90.554688 C 134.601562 90.308594 134.46875 90.121094 134.367188 89.992188 C 134.265625 89.859375 134.171875 89.769531 134.089844 89.71875 C 134.011719 89.664062 133.929688 89.628906 133.84375 89.609375 C 133.78125 89.597656 133.683594 89.589844 133.542969 89.589844 L 132.914062 89.589844 L 132.914062 91.410156 Z M 132.371094 91.410156 "/>
<path style=" stroke:none;fill-rule:nonzero;fill:rgb(33.64563%,34.083557%,34.945679%);fill-opacity:1;" d="M 139.835938 89.722656 L 141.226562 89.722656 L 140.796875 88.589844 C 140.667969 88.246094 140.570312 87.960938 140.507812 87.738281 C 140.453125 88 140.382812 88.261719 140.285156 88.519531 Z M 138.652344 91.410156 L 140.226562 87.308594 L 140.8125 87.308594 L 142.488281 91.410156 L 141.871094 91.410156 L 141.394531 90.167969 L 139.679688 90.167969 L 139.226562 91.410156 Z M 138.652344 91.410156 "/>
<path style=" stroke:none;fill-rule:nonzero;fill:rgb(33.64563%,34.083557%,34.945679%);fill-opacity:1;" d="M 146.070312 89.257812 L 147.128906 89.257812 C 147.480469 89.257812 147.726562 89.195312 147.878906 89.0625 C 148.023438 88.929688 148.097656 88.746094 148.097656 88.511719 C 148.097656 88.339844 148.054688 88.195312 147.964844 88.070312 C 147.882812 87.945312 147.765625 87.867188 147.625 87.828125 C 147.535156 87.804688 147.367188 87.789062 147.121094 87.789062 L 146.070312 87.789062 Z M 145.527344 91.410156 L 145.527344 87.308594 L 147.074219 87.308594 C 147.34375 87.308594 147.554688 87.320312 147.699219 87.347656 C 147.898438 87.378906 148.066406 87.445312 148.203125 87.539062 C 148.339844 87.632812 148.449219 87.765625 148.535156 87.933594 C 148.617188 88.105469 148.65625 88.289062 148.65625 88.492188 C 148.65625 88.84375 148.546875 89.136719 148.324219 89.378906 C 148.101562 89.621094 147.703125 89.742188 147.121094 89.742188 L 146.070312 89.742188 L 146.070312 91.410156 Z M 145.527344 91.410156 "/>
<path style=" stroke:none;fill-rule:nonzero;fill:rgb(33.64563%,34.083557%,34.945679%);fill-opacity:1;" d="M 152.042969 87.308594 L 152.585938 87.308594 L 152.585938 91.410156 L 152.042969 91.410156 Z M 152.042969 87.308594 "/>
<path style=" stroke:none;fill-rule:nonzero;fill:rgb(33.64563%,34.083557%,34.945679%);fill-opacity:1;" d="M 156.6875 90.925781 L 157.5625 90.925781 C 157.832031 90.925781 158.046875 90.902344 158.199219 90.847656 C 158.355469 90.800781 158.476562 90.730469 158.566406 90.636719 C 158.695312 90.507812 158.796875 90.335938 158.871094 90.117188 C 158.941406 89.902344 158.976562 89.636719 158.976562 89.328125 C 158.976562 88.902344 158.90625 88.570312 158.765625 88.339844 C 158.625 88.109375 158.453125 87.953125 158.253906 87.875 C 158.105469 87.820312 157.875 87.789062 157.550781 87.789062 L 156.6875 87.789062 Z M 156.144531 91.410156 L 156.144531 87.308594 L 157.558594 87.308594 C 157.878906 87.308594 158.121094 87.328125 158.289062 87.367188 C 158.523438 87.421875 158.722656 87.519531 158.890625 87.660156 C 159.105469 87.839844 159.269531 88.078125 159.375 88.363281 C 159.480469 88.644531 159.535156 88.96875 159.535156 89.335938 C 159.535156 89.648438 159.5 89.921875 159.425781 90.164062 C 159.355469 90.40625 159.261719 90.605469 159.148438 90.761719 C 159.035156 90.921875 158.910156 91.042969 158.777344 91.132812 C 158.640625 91.226562 158.476562 91.292969 158.285156 91.339844 C 158.09375 91.386719 157.875 91.410156 157.625 91.410156 Z M 156.144531 91.410156 "/>
<path style=" stroke:none;fill-rule:nonzero;fill:rgb(33.64563%,34.083557%,34.945679%);fill-opacity:1;" d="M 167.621094 89.257812 L 168.683594 89.257812 C 169.035156 89.257812 169.28125 89.195312 169.433594 89.0625 C 169.578125 88.929688 169.652344 88.746094 169.652344 88.511719 C 169.652344 88.339844 169.605469 88.195312 169.519531 88.070312 C 169.433594 87.945312 169.320312 87.867188 169.179688 87.828125 C 169.089844 87.804688 168.917969 87.789062 168.671875 87.789062 L 167.621094 87.789062 Z M 167.082031 91.410156 L 167.082031 87.308594 L 168.628906 87.308594 C 168.898438 87.308594 169.105469 87.320312 169.253906 87.347656 C 169.449219 87.378906 169.621094 87.445312 169.757812 87.539062 C 169.894531 87.632812 170.003906 87.765625 170.085938 87.933594 C 170.171875 88.105469 170.210938 88.289062 170.210938 88.492188 C 170.210938 88.84375 170.101562 89.136719 169.878906 89.378906 C 169.65625 89.621094 169.257812 89.742188 168.675781 89.742188 L 167.621094 89.742188 L 167.621094 91.410156 Z M 167.082031 91.410156 "/>
<path style=" stroke:none;fill-rule:nonzero;fill:rgb(33.64563%,34.083557%,34.945679%);fill-opacity:1;" d="M 174.054688 89.117188 L 175.222656 89.117188 C 175.46875 89.117188 175.664062 89.09375 175.804688 89.039062 C 175.945312 88.988281 176.050781 88.90625 176.125 88.792969 C 176.195312 88.679688 176.234375 88.558594 176.234375 88.429688 C 176.234375 88.230469 176.164062 88.074219 176.023438 87.945312 C 175.878906 87.824219 175.660156 87.761719 175.355469 87.761719 L 174.054688 87.761719 Z M 173.511719 91.410156 L 173.511719 87.308594 L 175.328125 87.308594 C 175.699219 87.308594 175.976562 87.347656 176.167969 87.417969 C 176.355469 87.492188 176.507812 87.621094 176.621094 87.808594 C 176.734375 87.992188 176.792969 88.199219 176.792969 88.429688 C 176.792969 88.71875 176.699219 88.964844 176.507812 89.164062 C 176.324219 89.359375 176.03125 89.488281 175.636719 89.542969 C 175.78125 89.613281 175.890625 89.679688 175.964844 89.746094 C 176.121094 89.894531 176.273438 90.074219 176.414062 90.292969 L 177.128906 91.410156 L 176.445312 91.410156 L 175.902344 90.554688 C 175.742188 90.308594 175.613281 90.121094 175.511719 89.992188 C 175.410156 89.859375 175.316406 89.769531 175.234375 89.71875 C 175.15625 89.664062 175.070312 89.628906 174.988281 89.609375 C 174.925781 89.597656 174.824219 89.589844 174.6875 89.589844 L 174.054688 89.589844 L 174.054688 91.410156 Z M 173.511719 91.410156 "/>
<path style=" stroke:none;fill-rule:nonzero;fill:rgb(33.64563%,34.083557%,34.945679%);fill-opacity:1;" d="M 180.640625 89.421875 C 180.640625 89.914062 180.773438 90.304688 181.035156 90.589844 C 181.304688 90.875 181.636719 91.015625 182.039062 91.015625 C 182.445312 91.015625 182.785156 90.871094 183.046875 90.585938 C 183.3125 90.296875 183.445312 89.886719 183.445312 89.359375 C 183.445312 89.027344 183.386719 88.734375 183.273438 88.488281 C 183.160156 88.238281 182.996094 88.042969 182.78125 87.90625 C 182.5625 87.773438 182.320312 87.703125 182.046875 87.703125 C 181.660156 87.703125 181.332031 87.832031 181.054688 88.097656 C 180.777344 88.359375 180.640625 88.800781 180.640625 89.421875 M 180.078125 89.410156 C 180.078125 88.730469 180.261719 88.199219 180.628906 87.8125 C 180.996094 87.425781 181.464844 87.234375 182.042969 87.234375 C 182.421875 87.234375 182.761719 87.324219 183.066406 87.507812 C 183.371094 87.6875 183.605469 87.941406 183.765625 88.261719 C 183.921875 88.585938 184.003906 88.953125 184.003906 89.363281 C 184.003906 89.78125 183.917969 90.152344 183.75 90.480469 C 183.582031 90.8125 183.34375 91.054688 183.039062 91.226562 C 182.730469 91.398438 182.398438 91.480469 182.039062 91.480469 C 181.65625 91.480469 181.3125 91.386719 181.003906 91.199219 C 180.703125 91.011719 180.472656 90.757812 180.3125 90.4375 C 180.160156 90.113281 180.078125 89.773438 180.078125 89.410156 "/>
<path style=" stroke:none;fill-rule:nonzero;fill:rgb(33.64563%,34.083557%,34.945679%);fill-opacity:1;" d="M 188.347656 91.410156 L 188.347656 87.789062 L 186.996094 87.789062 L 186.996094 87.308594 L 190.25 87.308594 L 190.25 87.789062 L 188.890625 87.789062 L 188.890625 91.410156 Z M 188.347656 91.410156 "/>
<path style=" stroke:none;fill-rule:nonzero;fill:rgb(33.64563%,34.083557%,34.945679%);fill-opacity:1;" d="M 193.699219 89.421875 C 193.699219 89.914062 193.832031 90.304688 194.097656 90.589844 C 194.363281 90.875 194.699219 91.015625 195.097656 91.015625 C 195.507812 91.015625 195.84375 90.871094 196.105469 90.585938 C 196.371094 90.296875 196.503906 89.886719 196.503906 89.359375 C 196.503906 89.027344 196.445312 88.734375 196.332031 88.488281 C 196.21875 88.238281 196.054688 88.042969 195.839844 87.90625 C 195.621094 87.773438 195.375 87.703125 195.105469 87.703125 C 194.722656 87.703125 194.390625 87.832031 194.113281 88.097656 C 193.835938 88.359375 193.699219 88.800781 193.699219 89.421875 M 193.136719 89.410156 C 193.136719 88.730469 193.324219 88.199219 193.6875 87.8125 C 194.050781 87.425781 194.523438 87.234375 195.101562 87.234375 C 195.484375 87.234375 195.824219 87.324219 196.128906 87.507812 C 196.429688 87.6875 196.664062 87.941406 196.824219 88.261719 C 196.980469 88.585938 197.0625 88.953125 197.0625 89.363281 C 197.0625 89.78125 196.976562 90.152344 196.808594 90.480469 C 196.640625 90.8125 196.40625 91.054688 196.097656 91.226562 C 195.789062 91.398438 195.457031 91.480469 195.101562 91.480469 C 194.714844 91.480469 194.371094 91.386719 194.066406 91.199219 C 193.761719 91.011719 193.53125 90.757812 193.375 90.4375 C 193.21875 90.113281 193.136719 89.773438 193.136719 89.410156 "/>
<path style=" stroke:none;fill-rule:nonzero;fill:rgb(33.64563%,34.083557%,34.945679%);fill-opacity:1;" d="M 201.40625 91.410156 L 201.40625 87.789062 L 200.054688 87.789062 L 200.054688 87.308594 L 203.308594 87.308594 L 203.308594 87.789062 L 201.949219 87.789062 L 201.949219 91.410156 Z M 201.40625 91.410156 "/>
<path style=" stroke:none;fill-rule:nonzero;fill:rgb(33.64563%,34.083557%,34.945679%);fill-opacity:1;" d="M 207.621094 91.410156 L 207.621094 89.671875 L 206.039062 87.308594 L 206.699219 87.308594 L 207.511719 88.542969 C 207.65625 88.773438 207.796875 89.007812 207.925781 89.238281 C 208.050781 89.023438 208.199219 88.78125 208.375 88.515625 L 209.171875 87.308594 L 209.800781 87.308594 L 208.164062 89.671875 L 208.164062 91.410156 Z M 207.621094 91.410156 "/>
<path style=" stroke:none;fill-rule:nonzero;fill:rgb(33.64563%,34.083557%,34.945679%);fill-opacity:1;" d="M 213.433594 89.257812 L 214.492188 89.257812 C 214.84375 89.257812 215.09375 89.195312 215.242188 89.0625 C 215.386719 88.929688 215.460938 88.746094 215.460938 88.511719 C 215.460938 88.339844 215.417969 88.195312 215.332031 88.070312 C 215.246094 87.945312 215.128906 87.867188 214.988281 87.828125 C 214.898438 87.804688 214.726562 87.789062 214.480469 87.789062 L 213.433594 87.789062 Z M 212.890625 91.410156 L 212.890625 87.308594 L 214.4375 87.308594 C 214.710938 87.308594 214.917969 87.320312 215.0625 87.347656 C 215.261719 87.378906 215.429688 87.445312 215.570312 87.539062 C 215.703125 87.632812 215.8125 87.765625 215.898438 87.933594 C 215.980469 88.105469 216.023438 88.289062 216.023438 88.492188 C 216.023438 88.84375 215.910156 89.136719 215.6875 89.378906 C 215.464844 89.621094 215.066406 89.742188 214.484375 89.742188 L 213.433594 89.742188 L 213.433594 91.410156 Z M 212.890625 91.410156 "/>
<path style=" stroke:none;fill-rule:nonzero;fill:rgb(33.64563%,34.083557%,34.945679%);fill-opacity:1;" d="M 219.40625 87.308594 L 219.949219 87.308594 L 219.949219 91.410156 L 219.40625 91.410156 Z M 219.40625 87.308594 "/>
<path style=" stroke:none;fill-rule:nonzero;fill:rgb(33.64563%,34.083557%,34.945679%);fill-opacity:1;" d="M 223.503906 91.410156 L 223.503906 87.308594 L 224.0625 87.308594 L 226.214844 90.527344 L 226.214844 87.308594 L 226.734375 87.308594 L 226.734375 91.410156 L 226.175781 91.410156 L 224.023438 88.183594 L 224.023438 91.410156 Z M 223.503906 91.410156 "/>
<path style=" stroke:none;fill-rule:nonzero;fill:rgb(33.64563%,34.083557%,34.945679%);fill-opacity:1;" d="M 232.167969 89.800781 L 232.167969 89.320312 L 233.90625 89.316406 L 233.90625 90.839844 C 233.640625 91.050781 233.363281 91.210938 233.082031 91.320312 C 232.796875 91.425781 232.507812 91.476562 232.207031 91.476562 C 231.804688 91.476562 231.441406 91.390625 231.109375 91.222656 C 230.78125 91.050781 230.53125 90.796875 230.363281 90.472656 C 230.195312 90.148438 230.113281 89.78125 230.113281 89.378906 C 230.113281 88.976562 230.195312 88.609375 230.363281 88.261719 C 230.527344 87.914062 230.769531 87.65625 231.082031 87.488281 C 231.398438 87.320312 231.757812 87.238281 232.164062 87.238281 C 232.464844 87.238281 232.730469 87.285156 232.972656 87.382812 C 233.210938 87.476562 233.398438 87.613281 233.535156 87.785156 C 233.667969 87.953125 233.773438 88.179688 233.847656 88.453125 L 233.355469 88.589844 C 233.292969 88.378906 233.21875 88.214844 233.125 88.097656 C 233.035156 87.976562 232.902344 87.878906 232.734375 87.808594 C 232.566406 87.738281 232.375 87.703125 232.167969 87.703125 C 231.921875 87.703125 231.707031 87.738281 231.523438 87.816406 C 231.34375 87.890625 231.199219 87.988281 231.089844 88.113281 C 230.976562 88.238281 230.890625 88.371094 230.828125 88.519531 C 230.722656 88.773438 230.671875 89.046875 230.671875 89.34375 C 230.671875 89.710938 230.734375 90.015625 230.863281 90.261719 C 230.988281 90.507812 231.171875 90.691406 231.410156 90.8125 C 231.648438 90.929688 231.90625 90.988281 232.175781 90.988281 C 232.414062 90.988281 232.644531 90.945312 232.867188 90.855469 C 233.089844 90.765625 233.261719 90.667969 233.375 90.566406 L 233.375 89.800781 Z M 232.167969 89.800781 "/>
<path style=" stroke:none;fill-rule:nonzero;fill:rgb(69.805908%,69.256592%,69.392395%);fill-opacity:1;" d="M 31.871094 71.679688 C 34.875 69.90625 37.875 68.128906 40.839844 66.285156 L 43.0625 64.914062 C 43.824219 64.414062 44.667969 64.082031 45.546875 63.839844 C 46.417969 63.589844 47.402344 63.554688 48.296875 63.71875 C 49.199219 63.871094 50.050781 64.113281 50.90625 64.425781 L 50.929688 64.433594 L 50.964844 64.453125 C 54.308594 66.300781 57.617188 68.214844 60.945312 70.09375 L 62.191406 70.800781 C 62.566406 71.011719 63.128906 71.328125 63.46875 71.773438 C 63.820312 72.207031 64.085938 72.710938 64.183594 73.304688 C 64.226562 73.648438 64.199219 73.851562 64.207031 74.097656 L 64.199219 74.8125 L 64.160156 80.546875 L 64.078125 86.28125 L 64.03125 89.144531 C 64.015625 89.640625 64.046875 90.050781 63.984375 90.625 C 63.882812 91.164062 63.640625 91.636719 63.300781 92.042969 C 63.140625 92.238281 62.917969 92.433594 62.699219 92.570312 L 62.066406 92.925781 L 60.816406 93.628906 L 58.320312 95.039062 L 53.355469 97.902344 L 48.40625 100.824219 C 47.929688 101.050781 47.40625 101.105469 46.898438 101.054688 C 46.371094 101.023438 45.886719 100.742188 45.496094 100.511719 L 42.996094 99.113281 L 37.996094 96.304688 L 33.03125 93.429688 L 31.804688 92.699219 C 31.332031 92.445312 30.914062 91.984375 30.671875 91.515625 C 30.542969 91.277344 30.441406 91.023438 30.378906 90.75 C 30.304688 90.480469 30.304688 90.144531 30.308594 89.9375 L 30.328125 88.507812 L 30.46875 82.777344 L 30.605469 77.042969 L 30.632812 74.175781 C 30.542969 73.207031 31.046875 72.195312 31.871094 71.679688 M 31.921875 71.761719 C 31.140625 72.277344 30.679688 73.238281 30.78125 74.175781 L 30.808594 77.042969 L 30.949219 82.777344 L 31.089844 88.507812 L 31.105469 89.9375 C 31.109375 90.210938 31.109375 90.363281 31.164062 90.554688 C 31.214844 90.746094 31.296875 90.9375 31.398438 91.117188 C 31.613281 91.484375 31.863281 91.761719 32.242188 91.953125 L 33.480469 92.671875 L 38.40625 95.605469 L 45.730469 100.117188 C 46.152344 100.378906 46.511719 100.605469 46.949219 100.65625 C 47.386719 100.71875 47.851562 100.664062 48.242188 100.488281 C 49.882812 99.570312 51.558594 98.601562 53.199219 97.640625 L 58.125 94.707031 L 60.574219 93.214844 L 61.800781 92.472656 C 62.222656 92.207031 62.613281 92.027344 62.859375 91.679688 C 63.125 91.34375 63.316406 90.929688 63.378906 90.527344 C 63.410156 90.148438 63.375 89.597656 63.375 89.144531 L 63.332031 86.28125 L 63.253906 80.546875 L 63.21875 74.8125 L 63.210938 74.097656 C 63.207031 73.863281 63.21875 73.589844 63.1875 73.457031 C 63.128906 73.109375 62.9375 72.730469 62.683594 72.433594 C 62.425781 72.117188 62.125 71.960938 61.671875 71.710938 L 60.429688 70.996094 C 57.121094 69.082031 53.792969 67.207031 50.503906 65.261719 L 50.558594 65.289062 C 48.988281 64.683594 47.328125 64.167969 45.714844 64.558594 C 44.902344 64.734375 44.085938 65.003906 43.359375 65.425781 L 41.0625 66.671875 C 37.988281 68.324219 34.953125 70.042969 31.921875 71.761719 "/>
<path style=" stroke:none;fill-rule:nonzero;fill:rgb(69.805908%,69.256592%,69.392395%);fill-opacity:1;" d="M 44.867188 82.828125 C 44.867188 82.828125 46.304688 83.601562 46.511719 85.8125 C 46.722656 88.027344 47.292969 98.871094 47.292969 98.871094 L 47.851562 85.804688 C 47.851562 85.804688 47.917969 83.898438 50.070312 82.691406 L 47.292969 83.035156 Z M 44.867188 82.828125 "/>
<path style=" stroke:none;fill-rule:nonzero;fill:rgb(60.545349%,15.286255%,8.358765%);fill-opacity:1;" d="M 57.375 69.972656 L 51.566406 66.578125 C 51.464844 66.515625 50.453125 65.851562 48.898438 65.527344 L 48.683594 65.480469 L 48.683594 65.484375 L 48.457031 65.445312 C 48.421875 65.4375 48.386719 65.433594 48.347656 65.433594 C 48.046875 65.433594 47.789062 65.652344 47.734375 65.949219 C 47.675781 66.285156 47.898438 66.609375 48.242188 66.671875 L 48.664062 66.75 C 49.921875 67.015625 50.871094 67.519531 50.878906 67.519531 L 56.441406 70.773438 C 56.96875 71.058594 58.328125 71.980469 58.328125 72.792969 C 58.328125 73.304688 57.171875 74.128906 56.4375 74.53125 L 48.046875 79.390625 C 47.824219 79.519531 47.507812 79.597656 47.183594 79.597656 C 46.855469 79.597656 46.539062 79.519531 46.3125 79.390625 L 34.789062 72.570312 L 43.578125 67.523438 C 43.589844 67.515625 44.515625 67.015625 45.757812 66.753906 C 45.808594 66.742188 45.863281 66.734375 45.921875 66.726562 C 46.160156 66.683594 46.460938 66.636719 46.664062 66.464844 L 46.675781 66.453125 C 46.699219 66.433594 47.164062 65.96875 47.085938 65.335938 C 47.015625 64.777344 46.828125 64.621094 46.644531 64.472656 C 46.496094 64.351562 46.1875 64.011719 46.207031 63.765625 C 46.21875 63.597656 46.347656 63.511719 46.558594 63.53125 C 47 63.574219 47.210938 63.039062 47.003906 62.652344 L 46.398438 62.585938 L 46.417969 62.742188 C 46.417969 62.742188 46.527344 62.945312 46.34375 63.078125 C 45.980469 63.351562 45.4375 62.753906 45.019531 63.589844 C 45.019531 63.589844 44.964844 63.75 44.960938 63.839844 C 44.960938 64.367188 45.09375 64.519531 45.355469 64.769531 C 45.441406 64.855469 45.546875 64.953125 45.664062 65.101562 C 45.714844 65.160156 45.792969 65.269531 45.769531 65.347656 C 45.738281 65.441406 45.582031 65.511719 45.515625 65.53125 C 44.054688 65.882812 42.949219 66.550781 42.90625 66.574219 L 32.441406 72.59375 L 46.058594 80.640625 C 46.359375 80.820312 46.761719 80.917969 47.1875 80.917969 C 47.609375 80.917969 48.011719 80.820312 48.3125 80.644531 L 57.375 75.390625 C 57.464844 75.335938 59.578125 74.082031 59.578125 72.828125 C 59.578125 71.3125 57.46875 70.027344 57.375 69.972656 "/>
<path style=" stroke:none;fill-rule:nonzero;fill:rgb(94.351196%,27.764893%,11.294556%);fill-opacity:1;" d="M 57.375 69.785156 L 51.566406 66.394531 C 51.464844 66.328125 50.453125 65.667969 48.898438 65.339844 L 48.683594 65.292969 L 48.683594 65.300781 L 48.457031 65.261719 C 48.421875 65.253906 48.386719 65.25 48.347656 65.25 C 48.046875 65.25 47.789062 65.464844 47.734375 65.765625 C 47.675781 66.097656 47.898438 66.421875 48.242188 66.484375 L 48.664062 66.566406 C 49.921875 66.828125 50.871094 67.332031 50.878906 67.335938 L 56.441406 70.585938 C 56.96875 70.875 58.328125 71.796875 58.328125 72.609375 C 58.328125 73.121094 57.171875 73.945312 56.4375 74.347656 L 48.046875 79.207031 C 47.824219 79.335938 47.507812 79.414062 47.183594 79.414062 C 46.855469 79.414062 46.539062 79.335938 46.3125 79.207031 L 34.789062 72.386719 L 43.578125 67.339844 C 43.589844 67.332031 44.515625 66.832031 45.757812 66.570312 C 45.808594 66.558594 45.863281 66.550781 45.921875 66.539062 C 46.160156 66.5 46.460938 66.449219 46.664062 66.277344 L 46.675781 66.269531 C 46.699219 66.25 47.164062 65.785156 47.085938 65.152344 C 47.015625 64.589844 46.828125 64.4375 46.644531 64.285156 C 46.496094 64.164062 46.1875 63.828125 46.207031 63.578125 C 46.21875 63.414062 46.347656 63.324219 46.558594 63.347656 C 47 63.386719 47.210938 62.855469 47.003906 62.464844 L 46.398438 62.402344 L 46.417969 62.554688 C 46.417969 62.554688 46.527344 62.757812 46.34375 62.894531 C 45.980469 63.167969 45.4375 62.566406 45.019531 63.40625 C 45.019531 63.40625 44.964844 63.566406 44.960938 63.65625 C 44.960938 64.179688 45.09375 64.332031 45.355469 64.582031 C 45.441406 64.671875 45.546875 64.769531 45.664062 64.914062 C 45.714844 64.972656 45.792969 65.085938 45.769531 65.164062 C 45.738281 65.257812 45.582031 65.328125 45.515625 65.347656 C 44.054688 65.699219 42.949219 66.363281 42.90625 66.390625 L 32.441406 72.40625 L 46.058594 80.457031 C 46.359375 80.636719 46.761719 80.734375 47.1875 80.734375 C 47.609375 80.734375 48.011719 80.636719 48.3125 80.460938 L 57.375 75.207031 C 57.464844 75.152344 59.578125 73.898438 59.578125 72.644531 C 59.578125 71.128906 57.46875 69.84375 57.375 69.785156 "/>
<path style=" stroke:none;fill-rule:nonzero;fill:rgb(55.580139%,56.269836%,56.70166%);fill-opacity:1;" d="M 25.671875 101.972656 L 68.746094 101.972656 L 68.746094 54.457031 L 25.671875 54.457031 Z M 70.375 103.601562 L 24.042969 103.601562 L 24.042969 52.828125 L 70.375 52.828125 Z M 70.375 103.601562 "/>
<path style=" stroke:none;fill-rule:nonzero;fill:rgb(33.64563%,34.083557%,34.945679%);fill-opacity:1;" d="M 50.078125 59.789062 L 43.265625 59.789062 L 41.269531 55.707031 L 41.269531 49.46875 L 52.070312 49.46875 L 52.070312 55.707031 Z M 50.078125 59.789062 "/>
<path style=" stroke:none;fill-rule:nonzero;fill:rgb(33.64563%,34.083557%,34.945679%);fill-opacity:1;" d="M 46.050781 60.222656 L 46.050781 61.933594 C 46.050781 62.324219 46.367188 62.644531 46.761719 62.644531 C 47.152344 62.644531 47.46875 62.324219 47.46875 61.933594 L 47.46875 60.222656 Z M 46.050781 60.222656 "/>
<path style=" stroke:none;fill-rule:nonzero;fill:rgb(60.545349%,15.286255%,8.358765%);fill-opacity:1;" d="M 31.582031 78.382812 L 31.582031 89.804688 C 31.582031 90.570312 32.117188 91.507812 32.777344 91.898438 L 34.082031 92.664062 C 34.144531 92.703125 34.210938 92.742188 34.273438 92.78125 L 34.371094 92.832031 C 34.460938 92.886719 34.566406 92.914062 34.667969 92.914062 C 34.988281 92.914062 35.238281 92.640625 35.253906 92.277344 C 35.265625 91.90625 34.882812 91.550781 34.554688 91.359375 L 33.890625 90.964844 C 33.378906 90.664062 32.945312 89.90625 32.945312 89.316406 L 32.945312 78.503906 L 32.953125 78.453125 L 32.953125 76.128906 L 46.148438 83.863281 C 46.765625 84.226562 47.773438 84.226562 48.390625 83.867188 L 61.464844 76.171875 L 61.464844 79.148438 L 61.472656 79.222656 L 61.46875 89.40625 C 61.46875 90.003906 61.035156 90.761719 60.519531 91.0625 L 60.078125 91.320312 C 60.050781 91.328125 60.027344 91.339844 60.003906 91.359375 C 59.964844 91.378906 59.925781 91.402344 59.886719 91.433594 L 59.863281 91.445312 L 59.777344 91.503906 L 59.777344 91.523438 C 59.574219 91.695312 59.359375 91.960938 59.308594 92.234375 C 59.261719 92.46875 59.308594 92.683594 59.425781 92.828125 C 59.519531 92.945312 59.644531 93 59.78125 93.003906 C 59.875 93.003906 59.960938 92.976562 60.046875 92.925781 L 60.101562 92.894531 C 60.160156 92.863281 60.222656 92.828125 60.277344 92.792969 L 61.632812 91.996094 C 62.296875 91.613281 62.832031 90.675781 62.832031 89.90625 L 62.835938 78.882812 L 62.824219 78.820312 L 62.824219 74.273438 C 62.824219 74.132812 62.804688 73.992188 62.769531 73.847656 L 61.421875 74.640625 L 48.289062 82.371094 C 47.722656 82.699219 46.804688 82.699219 46.242188 82.367188 L 33.023438 74.625 L 31.679688 73.835938 C 31.621094 74.023438 31.589844 74.210938 31.589844 74.386719 L 31.589844 78.34375 Z M 31.582031 78.382812 "/>
<path style=" stroke:none;fill-rule:nonzero;fill:rgb(94.351196%,27.764893%,11.294556%);fill-opacity:1;" d="M 31.582031 78.238281 L 31.582031 89.664062 C 31.582031 90.429688 32.117188 91.367188 32.777344 91.757812 L 34.082031 92.519531 C 34.144531 92.558594 34.210938 92.597656 34.273438 92.636719 L 34.371094 92.691406 C 34.460938 92.746094 34.566406 92.773438 34.667969 92.773438 C 34.988281 92.773438 35.238281 92.496094 35.253906 92.136719 C 35.265625 91.765625 34.882812 91.40625 34.554688 91.214844 L 33.890625 90.824219 C 33.378906 90.519531 32.945312 89.765625 32.945312 89.171875 L 32.945312 78.363281 L 32.953125 78.3125 L 32.953125 75.988281 L 46.148438 83.722656 C 46.765625 84.085938 47.773438 84.085938 48.390625 83.722656 L 61.464844 76.03125 L 61.464844 79.003906 L 61.472656 79.078125 L 61.46875 89.265625 C 61.46875 89.859375 61.035156 90.617188 60.519531 90.917969 L 60.078125 91.175781 C 60.050781 91.1875 60.027344 91.199219 60.003906 91.214844 C 59.964844 91.234375 59.925781 91.261719 59.886719 91.289062 L 59.863281 91.300781 L 59.777344 91.363281 L 59.777344 91.378906 C 59.574219 91.554688 59.359375 91.820312 59.308594 92.09375 C 59.261719 92.328125 59.308594 92.542969 59.425781 92.6875 C 59.519531 92.800781 59.644531 92.859375 59.78125 92.859375 C 59.875 92.859375 59.960938 92.832031 60.046875 92.789062 L 60.101562 92.75 C 60.160156 92.71875 60.222656 92.683594 60.277344 92.648438 L 61.632812 91.855469 C 62.296875 91.46875 62.832031 90.53125 62.832031 89.765625 L 62.835938 78.742188 L 62.824219 78.675781 L 62.824219 74.128906 C 62.824219 73.992188 62.804688 73.847656 62.769531 73.707031 L 61.421875 74.5 L 48.289062 82.226562 C 47.722656 82.558594 46.804688 82.558594 46.242188 82.226562 L 33.023438 74.484375 L 31.679688 73.691406 C 31.621094 73.882812 31.589844 74.066406 31.589844 74.246094 L 31.589844 78.203125 Z M 31.582031 78.238281 "/>
</g>
</svg>
